<svg xmlns="http://www.w3.org/2000/svg" width="44.25" height="34.819" viewBox="0 0 44.25 34.819">
  <path id="Path_8" data-name="Path 8" d="M12.113,129.712H46.732L35.243,118.224a2.123,2.123,0,0,1,0-3l.131-.131a2.123,2.123,0,0,1,3,0l15.078,15.083a2.108,2.108,0,0,1,.8,1.653v.208a2.123,2.123,0,0,1-1.1,1.86L38.373,148.674a2.123,2.123,0,0,1-3,0l-.131-.131a2.123,2.123,0,0,1,0-3l11.389-11.389H12.118A2.118,2.118,0,0,1,10,132.038v-.208A2.111,2.111,0,0,1,12.113,129.712Z" transform="translate(-10 -114.475)" fill="#c40001"/>
</svg>
