<svg version="1.2" xmlns="http://www.w3.org/2000/svg" viewBox="0 0 45 35" width="45" height="35">
	<title>arrow-svg</title>
	<style>
		.s0 { fill: #004e9d } 
	</style>
	<path id="Path_8" class="s0" d="m42.9 15.4q0.4 0.2 0.7 0.5 0.3 0.3 0.5 0.6 0.2 0.4 0.2 0.9v0.2q0 0.4-0.2 0.8-0.2 0.4-0.5 0.7-0.3 0.3-0.7 0.4-0.3 0.2-0.8 0.2h-34.5l11.4 11.4q0.3 0.3 0.5 0.7 0.1 0.3 0.1 0.8 0 0.4-0.1 0.8-0.2 0.4-0.5 0.7l-0.1 0.1q-0.3 0.3-0.7 0.5-0.4 0.1-0.8 0.1-0.4 0-0.8-0.1-0.4-0.2-0.7-0.5l-14.8-14.8q-0.2-0.1-0.5-0.3-0.2-0.2-0.3-0.5-0.1-0.2-0.2-0.5-0.1-0.3-0.1-0.5v-0.2q0-0.3 0.1-0.5 0-0.2 0.1-0.5 0.1-0.2 0.3-0.4 0.1-0.2 0.3-0.3l15.1-15.1q0.3-0.3 0.7-0.4 0.4-0.2 0.8-0.2 0.4 0 0.8 0.2 0.4 0.1 0.7 0.4l0.1 0.1q0.3 0.3 0.5 0.7 0.1 0.4 0.1 0.8 0 0.5-0.1 0.9-0.2 0.4-0.5 0.6l-11.5 11.5h34.6q0.5 0 0.8 0.2z"/>
</svg>