<svg xmlns="http://www.w3.org/2000/svg" width="378.679" height="379.483" viewBox="0 0 378.679 379.483">
  <path id="path17" d="M341.445-.035c-1.616.006,4.608,5.7,4.978,10.138.47,4.334-.84,10.5-2.94,15.655a39.2,39.2,0,0,1-8.533,12.918c-3.544,3.595-7.76,6.652-9.037,6.014-1.277-.622.352-4.939,1.393-10.5s1.478-12.38-.252-18.058A21.412,21.412,0,0,0,317.11,3.585a17,17,0,0,0-7.635-1.631c-6.976.292-13.263,5.735-16.453,11.128a17.833,17.833,0,0,0-2.688,10.577,12.845,12.845,0,0,0,3.175,7.778,23.3,23.3,0,0,0,6.249,4.838c2.066,1.142,3.813,1.8,3.88,1.277s-1.546-2.217-3.158-4.25a14.091,14.091,0,0,1-3.528-7.593,12.585,12.585,0,0,1,3.763-9.827,15.111,15.111,0,0,1,11.523-4.065c3.914.5,7.055,3.225,8.785,7.777,1.73,4.535,2.05,10.885.656,18.007-1.377,7.122-4.485,15-8.6,22.812-1.982,3.78-4.216,7.541-6.5,11.371a25.021,25.021,0,0,0,.185-7.189c-.655-4.619-3.225-8.987-7.442-11.019a14.637,14.637,0,0,0-10.18-.706c-.672-.336-1.344-.706-1.931-1.058-1.781-1.092-2.6-2.1-2.889-3.864-.3-1.781-.085-4.316,1.276-5.66a4.5,4.5,0,0,1,5.426-.437c1.562,1.092,2.15,3.444,2.688,4,.538.571.991-.655.974-2.251a6.8,6.8,0,0,0-2.032-4.871,9.136,9.136,0,0,0-6.433-2.067c-2.536.1-5.174,1.075-6.518,3.359a8.894,8.894,0,0,0,.184,8.5c1.5,2.536,4.435,4.216,7.056,5.207a12.157,12.157,0,0,0-1.949,1.159c-4.2,3.04-6.7,8.818-6.635,13.807.067,4.972,2.7,9.156,6.468,10.348a10.448,10.448,0,0,0,10.667-3.36c2-2.772,1.126-6.568-.369-8.684-1.478-2.117-3.578-2.553-4.015-1.931-.437.6.79,2.268.336,4.149s-2.571,3.981-4.553,4.015-3.813-2.016-4.2-4.619a9.11,9.11,0,0,1,3.359-8.114c2.738-2.318,7.156-3.83,10.566-3.293a9.508,9.508,0,0,1,7.022,5.863c1.209,2.772,1.243,5.745.756,9.255-.773,5.527-2.469,7.173-5.107,11.943-8.281,15.068-12.431,27.532-13.119,39.727-.672,11.843,1.915,23.467,7.122,37.006,2.7,7.021,5.762,13.354,8.819,20.057.722,1.562,1.444,3.159,2.167,4.755a13.21,13.21,0,0,1-1.6.353,23.462,23.462,0,0,1-8.3-.773,31.579,31.579,0,0,1-10.431-4.217c-3.242-2.2-5.83-5.341-5.46-5.677.37-.353,3.7,2.116,6.837,3.863a43.423,43.423,0,0,0,8.416,3.46c2.268.672,3.847,1.008,3.847-.269-.017-1.26-1.63-4.132-3.713-6.769a17.893,17.893,0,0,0-8.533-6.417c-3.931-1.327-9.238-1.579-12.632-3.192-3.376-1.613-4.821-4.585-4.939-3.594a1.637,1.637,0,0,0,0,.228,48.223,48.223,0,0,0,2.96,10.371c1.848,4.67,4.3,9.087,8.214,12.346a25.631,25.631,0,0,0,14.093,5.61,20.317,20.317,0,0,0,11.44-2.654c.286-.168.537-.352.772-.52,2.083,4.653,4.217,9.524,6.484,14.832a267.65,267.65,0,0,1,10.1,26.826c1.764,5.745,3.292,11.776,4.518,17.621-2.167-4.586-5.056-9.961-9.256-13.842-5.678-5.241-13.724-7.761-21.065-4.972-7.324,2.788-13.959,10.868-15.42,20.426-1.478,9.558,2.2,20.594,8,27.179,5.812,6.585,13.74,8.735,19.57,5.443s9.575-12.044,8.735-18.394c-.823-6.333-6.215-10.281-10.4-11.188-4.183-.89-7.173,1.26-6.988,2.655s3.561,2.016,5.191,5.123c1.629,3.124,1.528,8.718-.79,11.321-2.3,2.62-6.82,2.251-10.28-.722s-5.879-8.584-5.325-15.253c.538-6.686,4.049-14.462,8.685-18.192,4.653-3.729,10.448-3.427,15.051-1.294,4.619,2.133,8.079,6.081,11.1,11.3,1.848,3.208,4.821,8.819,5.325,12.447a110.471,110.471,0,0,1,1.008,23.467c-.487,6.736-1.929,13.985-4.792,19.1a48.834,48.834,0,0,1-41.3,27.769,110.469,110.469,0,0,1-23.467-1.008c-3.628-.5-9.239-3.477-12.447-5.325-5.224-3.024-9.171-6.483-11.3-11.1-2.133-4.6-2.436-10.4,1.294-15.051,3.729-4.636,11.506-8.148,18.192-8.685,6.669-.554,12.28,1.865,15.253,5.325s3.343,7.979.722,10.28c-2.6,2.318-8.2,2.419-11.321.79-3.108-1.629-3.729-5.006-5.123-5.191s-3.545,2.805-2.655,6.988c.907,4.183,4.855,9.575,11.188,10.4,6.35.84,15.1-2.906,18.394-8.735s1.142-13.757-5.443-19.57c-6.585-5.8-17.621-9.475-27.179-8-9.558,1.461-17.638,8.1-20.426,15.42-2.788,7.341-.269,15.387,4.972,21.065,3.88,4.2,9.256,7.089,13.842,9.255-5.846-1.226-11.876-2.755-17.621-4.518a267.649,267.649,0,0,1-26.826-10.1c-5.308-2.268-10.179-4.4-14.832-6.484.168-.235.352-.487.52-.772a20.317,20.317,0,0,0,2.654-11.44,25.631,25.631,0,0,0-5.61-14.093c-3.259-3.914-7.676-6.366-12.346-8.214a48.2,48.2,0,0,0-10.371-2.96,1.62,1.62,0,0,0-.228,0c-.991.118,1.982,1.563,3.594,4.939,1.613,3.393,1.865,8.7,3.192,12.632a17.894,17.894,0,0,0,6.417,8.533c2.637,2.083,5.51,3.7,6.769,3.713,1.277,0,.94-1.579.269-3.847a43.424,43.424,0,0,0-3.46-8.416c-1.747-3.141-4.216-6.468-3.863-6.837.336-.37,3.476,2.218,5.677,5.46a31.579,31.579,0,0,1,4.217,10.432,23.463,23.463,0,0,1,.773,8.3,13.21,13.21,0,0,1-.353,1.6c-1.6-.722-3.192-1.444-4.755-2.167-6.7-3.057-13.035-6.115-20.057-8.819-13.539-5.207-25.163-7.794-37.006-7.122-12.2.689-24.659,4.838-39.727,13.12-4.771,2.637-6.417,4.334-11.943,5.107-3.511.487-6.484.454-9.255-.756a9.508,9.508,0,0,1-5.863-7.022c-.538-3.41.974-7.828,3.293-10.566a9.11,9.11,0,0,1,8.114-3.359c2.6.386,4.653,2.217,4.619,4.2s-2.133,4.1-4.015,4.553-3.544-.773-4.149-.336c-.622.437-.185,2.537,1.931,4.015,2.117,1.5,5.913,2.368,8.684.369a10.448,10.448,0,0,0,3.36-10.667c-1.193-3.763-5.376-6.4-10.348-6.468-4.989-.067-10.767,2.436-13.807,6.635a12.16,12.16,0,0,0-1.159,1.949c-.991-2.62-2.671-5.561-5.207-7.056a8.894,8.894,0,0,0-8.5-.184c-2.285,1.344-3.258,3.981-3.359,6.518a9.136,9.136,0,0,0,2.067,6.433,6.8,6.8,0,0,0,4.871,2.032c1.6.017,2.822-.437,2.251-.974-.554-.538-2.906-1.126-4-2.688a4.5,4.5,0,0,1,.437-5.426c1.344-1.361,3.88-1.578,5.66-1.276,1.764.286,2.772,1.108,3.864,2.889.353.588.722,1.26,1.058,1.931a14.637,14.637,0,0,0,.706,10.18c2.033,4.216,6.4,6.786,11.019,7.442a25.021,25.021,0,0,0,7.189-.185c-3.83,2.285-7.592,4.519-11.371,6.5-7.811,4.115-15.69,7.223-22.812,8.6-7.122,1.394-13.472,1.075-18.007-.656-4.552-1.73-7.273-4.871-7.777-8.785a15.111,15.111,0,0,1,4.065-11.523,12.585,12.585,0,0,1,9.827-3.763,14.092,14.092,0,0,1,7.593,3.528c2.033,1.613,3.729,3.226,4.25,3.158s-.135-1.814-1.277-3.88a23.3,23.3,0,0,0-4.838-6.249,12.845,12.845,0,0,0-7.778-3.175,17.832,17.832,0,0,0-10.577,2.688c-5.392,3.19-10.836,9.476-11.128,16.453a17,17,0,0,0,1.631,7.635,21.412,21.412,0,0,0,12.548,9.944c5.678,1.73,12.5,1.293,18.058.252s9.877-2.67,10.5-1.393c.638,1.277-2.419,5.493-6.014,9.037a39.2,39.2,0,0,1-12.918,8.533c-5.157,2.1-11.322,3.41-15.655,2.94C6.322,346.2.633,339.968.626,341.6c.095,1.944,4.131,7.047,5.989,8.991a22.366,22.366,0,0,0,13.59,5.325,24.3,24.3,0,0,0,16.831-5.98c5.023-4.368,8.835-11.237,11.657-16.277,2.805-5.056,4.6-8.265,6.753-10.667,2.167-2.4,4.67-3.981,5.325-3.78.655.218-.537,2.25-1.31,4.938a20.778,20.778,0,0,0-.4,9.525c.672,3.444,2.368,6.938,5.476,8.651a10.908,10.908,0,0,0,10.784-.437,12.567,12.567,0,0,0,4.989-9.406c.1-3.175-1.428-5.359-2.234-5.275-.823.084-.941,2.436-2.251,4.048a4.953,4.953,0,0,1-6,1.361c-2.184-1.125-4.031-4.233-3.762-8.03.269-3.78,2.67-8.265,8.13-12.548s13.976-8.365,22.425-11.641,16.865-5.728,25.18-6.518a72.212,72.212,0,0,1,22.392,1.461c5.846,1.394,9.272,3.31,9.306,4,.034.672-3.359.134-8.567-.084a105.366,105.366,0,0,0-19.536.975c-7.273,1.092-14.816,3.174-21.2,7.156a41.475,41.475,0,0,0-14.429,15.353,22.991,22.991,0,0,0-2.335,15.135c.84,4.586,2.906,8.684,7.122,11.053a22.13,22.13,0,0,0,15.3,1.747,13.488,13.488,0,0,0,9.289-7.912,10.724,10.724,0,0,0-1.31-10.011c-2.016-3.007-5.442-5.409-6.669-5.56-1.226-.168-.252,1.9.134,3.9a8.142,8.142,0,0,1-.856,5.678,8,8,0,0,1-5.426,3.931,8.229,8.229,0,0,1-8.146-2.839C94.771,335.1,94,330.179,96,325.224c1.982-4.972,6.736-9.994,13.522-13.69,6.8-3.712,15.639-6.114,25.566-7.021a104.475,104.475,0,0,1,33.176,2.536c12.212,2.839,25.634,7.912,40.281,13.12,1.31.47,2.637.941,3.964,1.411a53.09,53.09,0,0,0-14.412,4.636c-7.139,3.326-17.873,11.741-23.6,13.32a23.465,23.465,0,0,1-8.332.286,30.858,30.858,0,0,1-10.885-2.873c-3.494-1.764-6.467-4.535-6.131-4.921.319-.386,3.93,1.629,7.273,2.956a42.308,42.308,0,0,0,8.768,2.368c2.352.386,3.964.5,3.8-.739-.185-1.26-2.133-3.9-4.535-6.266a17.919,17.919,0,0,0-9.29-5.275c-4.065-.823-9.373-.386-12.918-1.562-3.561-1.159-5.375-3.931-5.358-2.94s1.864,5.729,4.283,10.13c2.419,4.418,5.409,8.482,9.709,11.2a25.639,25.639,0,0,0,14.681,3.8,20.142,20.142,0,0,0,4.3-.756c-1.7,1.613-3.225,3.158-4.82,4.72a72.875,72.875,0,0,1-11.96,9.844,45.128,45.128,0,0,1-10.113,4.754c-.957.151,1.915-1.378,5.057-3.36a88.689,88.689,0,0,0,9.424-6.836c2.839-2.385,5.072-4.7,4.333-5.644-.756-.941-4.485-.5-8.164.538a25.194,25.194,0,0,0-10.079,5.291,26.51,26.51,0,0,0-6.316,9.693,40.687,40.687,0,0,0-2.738,10.549c-.3,3.024.05,5.174.537,4.939.5-.218,1.126-2.839,5.04-4.956s11.12-3.729,16.378-7.106c5.275-3.393,8.6-8.55,10.734-12.38,2.15-3.83,3.108-6.333,6.619-9.626a69.375,69.375,0,0,1,15.957-10.414,90.152,90.152,0,0,1,18.982-6.434,100.21,100.21,0,0,1,15.942-2.234l.89-.05a16.114,16.114,0,0,0-8.785,10.129c-2.133,7.022,1.226,11.826-.706,16.58-1.008,2.52-2.049,3.712-3.964,4.267s-4.721.471-6.35-1.276a7.3,7.3,0,0,1-1.007-7.341c1.041-2.2,3.56-3.209,4.115-3.981.571-.773-.839-1.294-2.569-1.143a6.849,6.849,0,0,0-5.157,3.158,14.49,14.49,0,0,0-1.612,8.919c.353,3.427,1.713,6.955,4.35,8.584a8.145,8.145,0,0,0,9.307-.957c2.637-2.234,4.2-6.367,5.006-10.012a18.094,18.094,0,0,0,1.479,2.554c3.763,5.476,10.38,8.415,15.84,7.911a11.847,11.847,0,0,0,10.718-9.658c.941-5.207-1.495-11.708-4.754-14.211-3.259-2.486-7.341-.991-9.508,1.193-2.184,2.2-2.452,5.09-1.73,5.628.722.554,2.419-1.26,4.535-.79,2.117.454,4.636,3.174,4.871,5.862a6.084,6.084,0,0,1-4.653,6.081c-2.822.756-6.417-.4-9.255-3.914a23,23,0,0,1-4.687-14.077,12.6,12.6,0,0,1,5.729-10.029c5.728-3.679,19.922,2.335,27.011,3.561,14.7,2.537,28.237,2.268,38.417.017a55.77,55.77,0,0,0,40.948-41.731c2.251-10.18,2.52-23.719-.017-38.417-1.226-7.089-7.24-21.283-3.561-27.011a12.6,12.6,0,0,1,10.029-5.729,23,23,0,0,1,14.077,4.687c3.511,2.839,4.67,6.433,3.914,9.255A6.084,6.084,0,0,1,351.5,239c-2.688-.235-5.408-2.755-5.862-4.871-.47-2.117,1.344-3.813.79-4.535-.538-.722-3.427-.454-5.628,1.73-2.184,2.167-3.679,6.249-1.193,9.508,2.5,3.259,9,5.694,14.211,4.754a11.847,11.847,0,0,0,9.658-10.718c.5-5.459-2.435-12.077-7.911-15.84a18.1,18.1,0,0,0-2.554-1.479c3.645-.806,7.778-2.368,10.012-5.006a8.145,8.145,0,0,0,.957-9.307c-1.629-2.637-5.157-4-8.584-4.35a14.491,14.491,0,0,0-8.92,1.612,6.849,6.849,0,0,0-3.158,5.157c-.151,1.73.37,3.141,1.143,2.569.773-.554,1.781-3.073,3.981-4.115a7.3,7.3,0,0,1,7.341,1.007c1.747,1.629,1.83,4.435,1.276,6.35s-1.747,2.956-4.267,3.964c-4.754,1.932-9.558-1.428-16.58.706a16.115,16.115,0,0,0-10.129,8.785c.017-.3.033-.6.05-.89a100.2,100.2,0,0,1,2.234-15.942,90.159,90.159,0,0,1,6.434-18.982,69.381,69.381,0,0,1,10.414-15.957c3.292-3.511,5.8-4.468,9.626-6.619,3.83-2.133,8.987-5.46,12.38-10.734,3.376-5.258,4.989-12.464,7.105-16.378s4.737-4.536,4.956-5.04c.235-.487-1.915-.839-4.939-.537a40.688,40.688,0,0,0-10.549,2.738,26.51,26.51,0,0,0-9.693,6.316,25.2,25.2,0,0,0-5.291,10.079c-1.041,3.679-1.479,7.408-.538,8.164.941.739,3.259-1.494,5.644-4.333a88.675,88.675,0,0,0,6.836-9.424c1.982-3.141,3.511-6.014,3.36-5.056a45.13,45.13,0,0,1-4.754,10.113,72.864,72.864,0,0,1-9.844,11.96c-1.562,1.6-3.108,3.124-4.72,4.82a20.144,20.144,0,0,0,.756-4.3,25.638,25.638,0,0,0-3.8-14.682c-2.721-4.3-6.786-7.29-11.2-9.709-4.4-2.419-9.139-4.266-10.13-4.283s1.781,1.8,2.94,5.358c1.176,3.544.739,8.852,1.562,12.918a17.918,17.918,0,0,0,5.275,9.29c2.369,2.4,5.006,4.35,6.266,4.535,1.243.168,1.125-1.445.739-3.8a42.307,42.307,0,0,0-2.368-8.768c-1.327-3.343-3.343-6.954-2.956-7.273.386-.336,3.158,2.637,4.921,6.131a30.856,30.856,0,0,1,2.873,10.885,23.465,23.465,0,0,1-.286,8.332c-1.579,5.728-9.994,16.462-13.32,23.6a53.089,53.089,0,0,0-4.636,14.412c-.47-1.327-.941-2.654-1.411-3.964-5.207-14.648-10.281-28.069-13.119-40.281a104.474,104.474,0,0,1-2.536-33.176c.907-9.928,3.309-18.763,7.021-25.566,3.7-6.786,8.718-11.54,13.69-13.522,4.955-2,9.877-1.226,12.632.874a8.229,8.229,0,0,1,2.839,8.146,8,8,0,0,1-3.931,5.426,8.142,8.142,0,0,1-5.678.856c-2-.386-4.065-1.361-3.9-.134.151,1.226,2.553,4.653,5.56,6.669a10.723,10.723,0,0,0,10.011,1.31,13.488,13.488,0,0,0,7.912-9.289,22.13,22.13,0,0,0-1.747-15.3c-2.369-4.216-6.467-6.282-11.053-7.122a22.991,22.991,0,0,0-15.135,2.335,41.475,41.475,0,0,0-15.353,14.429c-3.981,6.383-6.064,13.926-7.156,21.2a105.37,105.37,0,0,0-.975,19.536c.218,5.207.756,8.6.084,8.567-.689-.034-2.6-3.46-4-9.306a72.212,72.212,0,0,1-1.461-22.392c.789-8.315,3.242-16.731,6.518-25.18s7.357-16.966,11.641-22.425,8.769-7.861,12.548-8.13c3.8-.269,6.9,1.578,8.03,3.762a4.953,4.953,0,0,1-1.361,6c-1.613,1.31-3.964,1.428-4.048,2.251-.084.806,2.1,2.335,5.275,2.234a12.568,12.568,0,0,0,9.407-4.989,10.908,10.908,0,0,0,.437-10.784c-1.713-3.108-5.207-4.8-8.651-5.476a20.778,20.778,0,0,0-9.525.4c-2.688.773-4.72,1.965-4.938,1.31-.2-.655,1.378-3.158,3.78-5.325,2.4-2.15,5.611-3.948,10.667-6.753,5.039-2.822,11.909-6.635,16.277-11.657a24.3,24.3,0,0,0,5.98-16.831,22.366,22.366,0,0,0-5.325-13.59c-1.949-1.867-7.055-5.9-9-6Z" transform="translate(379.305 379.449) rotate(180)" fill="#052d55" fill-rule="evenodd" opacity="0.8"/>
</svg>
