<svg xmlns="http://www.w3.org/2000/svg" width="902.102" height="166.082" viewBox="0 0 902.102 166.082">
  <path id="path17" d="M242.489-.076a2.418,2.418,0,0,0-.339.006C240.674.1,245.1,2.256,247.5,7.285c2.407,5.053,2.782,12.957,4.758,18.81,2,5.854,5.6,9.631,9.552,12.708,3.925,3.1,8.2,5.5,10.081,5.529,1.9,0,1.4-2.352.4-5.729a65,65,0,0,0-5.154-12.533c-2.605-4.678-6.276-9.631-5.754-10.182.5-.55,5.175,3.3,8.451,8.131a46.98,46.98,0,0,1,6.283,15.534c1.172,4.952,1.6,9.08,1.151,12.357a20.613,20.613,0,0,1-.522,2.376c-2.379-1.076-4.758-2.151-7.081-3.226-9.983-4.553-19.414-9.106-29.87-13.134-20.163-7.754-37.473-11.607-55.109-10.606-18.158,1.025-36.718,7.2-59.161,19.537-7.1,3.927-9.552,6.454-17.784,7.6-5.231.725-9.658.676-13.781-1.125s-7.935-5.379-8.733-10.457,1.447-11.657,4.9-15.734a13.574,13.574,0,0,1,12.086-5c3.876.575,6.926,3.3,6.876,6.253s-3.177,6.1-5.98,6.78-5.274-1.151-6.177-.5c-.925.65-.275,3.777,2.88,5.978,3.149,2.227,8.8,3.527,12.927.551,4.158-3,6.784-10.281,5.005-15.885s-8.006-9.531-15.412-9.632c-7.427-.1-16.033,3.627-20.558,9.881a18.32,18.32,0,0,0-1.73,2.9c-1.475-3.9-3.975-8.28-7.752-10.506-3.952-2.3-9.281-2.276-12.658-.275-3.4,2-4.852,5.929-5,9.706a13.607,13.607,0,0,0,3.078,9.58A10.127,10.127,0,0,0,64.969,40c2.376.025,4.2-.65,3.352-1.45-.825-.8-4.328-1.677-5.954-4a6.7,6.7,0,0,1,.65-8.08c2-2.027,5.778-2.351,8.426-1.9,2.633.425,4.13,1.651,5.761,4.3.522.875,1.073,1.876,1.574,2.876a21.767,21.767,0,0,0,1.052,15.16c3.022,6.278,9.531,10.106,16.407,11.082a37.236,37.236,0,0,0,10.7-.276c-5.7,3.4-11.3,6.729-16.929,9.681C78.377,73.521,66.645,78.152,56.039,80.2c-10.607,2.083-20.063,1.6-26.817-.974-6.779-2.577-10.83-7.25-11.581-13.081-.726-5.829,1.876-12.833,6.053-17.16a18.74,18.74,0,0,1,14.634-5.6c4.678.4,8.255,2.827,11.306,5.253,3.027,2.4,5.554,4.8,6.329,4.7s-.2-2.7-1.9-5.778a34.689,34.689,0,0,0-7.2-9.306,19.126,19.126,0,0,0-11.582-4.728c-4.878-.35-9.9.625-15.751,4-8.03,4.751-16.137,14.112-16.571,24.5.038,3.522.561,7.91,2.43,11.373a31.886,31.886,0,0,0,18.686,14.8c8.456,2.577,18.611,1.927,26.891.374S65.669,84.6,66.595,86.5c.95,1.906-3.6,8.182-8.956,13.463A58.455,58.455,0,0,1,38.4,112.675c-7.68,3.127-16.86,5.076-23.314,4.377C8.473,116.5,0,107.232-.009,109.639c.141,2.895,6.151,10.491,8.919,13.392a33.323,33.323,0,0,0,20.238,7.928,36.184,36.184,0,0,0,25.065-8.909c7.479-6.5,13.157-16.732,17.358-24.236,4.179-7.533,6.855-12.305,10.06-15.885C84.857,78.35,88.585,76,89.559,76.3c.974.325-.8,3.346-1.949,7.349a30.846,30.846,0,0,0-.6,14.19c1,5.125,3.523,10.329,8.154,12.877a16.221,16.221,0,0,0,16.054-.65c4.659-3.127,7.257-9.3,7.434-14.007.148-4.73-2.125-7.978-3.325-7.858-1.228.127-1.4,3.629-3.353,6.029a7.377,7.377,0,0,1-8.931,2.026c-3.255-1.673-6.008-6.3-5.605-11.952S101.413,72,109.545,65.619s20.812-12.458,33.393-17.335,25.119-8.53,37.5-9.706a107.531,107.531,0,0,1,33.343,2.176c8.7,2.076,13.809,4.928,13.858,5.954.049,1-5.005.2-12.757-.126a156.9,156.9,0,0,0-29.093,1.451c-10.83,1.627-22.062,4.728-31.571,10.656a61.775,61.775,0,0,0-21.483,22.865,34.205,34.205,0,0,0-3.48,22.535c1.25,6.834,4.328,12.934,10.6,16.463,6.255,3.523,15.666,4.5,22.789,2.6a20.078,20.078,0,0,0,13.837-11.783,15.963,15.963,0,0,0-1.956-14.9c-3-4.483-8.1-8.055-9.926-8.281-1.828-.254-.374,2.824.2,5.8a12.1,12.1,0,0,1-1.278,8.451,11.883,11.883,0,0,1-8.076,5.86c-3.9.748-9.008-.127-12.129-4.229s-4.278-11.437-1.306-18.814c2.951-7.406,10.032-14.883,20.142-20.386,10.131-5.529,23.283-9.105,38.066-10.456a155.621,155.621,0,0,1,49.412,3.776c18.186,4.227,38.172,11.783,59.98,19.539,1.956.7,3.932,1.4,5.909,2.1a79.308,79.308,0,0,0-21.462,6.9c-10.632,4.956-26.623,17.487-35.151,19.838-3.177.875-7.356.953-12.4.424a45.783,45.783,0,0,1-16.216-4.278c-5.2-2.626-9.63-6.749-9.128-7.328.48-.572,5.853,2.429,10.83,4.405a63.4,63.4,0,0,0,13.061,3.53c3.5.572,5.9.748,5.655-1.1-.275-1.878-3.177-5.8-6.756-9.333-3.551-3.5-7.752-6.629-13.83-7.858-6.057-1.221-13.957-.572-19.238-2.323-5.3-1.73-8.006-5.853-7.978-4.377s2.775,8.528,6.375,15.08c3.6,6.58,8.055,12.637,14.459,16.689a38.178,38.178,0,0,0,21.864,5.648,29.7,29.7,0,0,0,6.4-1.123c-2.527,2.4-4.8,4.7-7.18,7.032-5.351,5.224-11.3,10.6-17.812,14.656s-13.632,6.827-15.059,7.081c-1.426.226,2.852-2.054,7.533-5.005a133.208,133.208,0,0,0,14.035-10.18c4.229-3.551,7.554-7,6.453-8.408-1.13-1.4-6.679-.748-12.157.8a37.449,37.449,0,0,0-15.009,7.879c-4.179,3.805-7.18,8.98-9.411,14.43a60.885,60.885,0,0,0-4.073,15.715c-.452,4.5.071,7.7.8,7.349.755-.325,1.68-4.222,7.5-7.377s16.562-5.549,24.392-10.583c7.858-5.048,12.806-12.729,15.983-18.433,3.205-5.7,4.631-9.432,9.855-14.331,5.253-4.907,14.31-10.957,23.763-15.51a134.21,134.21,0,0,1,28.268-9.58,149.606,149.606,0,0,1,23.742-3.332c.424-.021.875-.049,1.327-.071a23.966,23.966,0,0,0-13.082,15.08c-3.177,10.456,1.821,17.614-1.052,24.7-1.5,3.749-3.05,5.528-5.9,6.354s-7.032.7-9.46-1.906c-2.4-2.6-3.05-7.653-1.5-10.929s5.3-4.779,6.128-5.93c.847-1.151-1.25-1.927-3.826-1.7a10.213,10.213,0,0,0-7.681,4.7c-2,3.128-2.951,8.154-2.4,13.287.522,5.1,2.549,10.357,6.474,12.785a12.142,12.142,0,0,0,13.858-1.426c3.932-3.332,6.255-9.481,7.455-14.91a26.682,26.682,0,0,0,2.2,3.8c5.605,8.154,15.461,12.531,23.587,11.783a17.634,17.634,0,0,0,15.962-14.381c1.4-7.759-2.224-17.438-7.081-21.165-4.85-3.7-10.929-1.476-14.155,1.779-3.255,3.276-3.657,7.575-2.577,8.38,1.073.826,3.6-1.878,6.749-1.179,3.156.678,6.9,4.73,7.257,8.733s-2.725,7.956-6.926,9.058c-4.208,1.123-9.559-.6-13.788-5.831-4.229-5.253-7.328-14.007-6.975-20.961a18.756,18.756,0,0,1,8.528-14.939c8.528-5.478,29.665,3.48,40.22,5.3,21.892,3.777,42.055,3.382,57.213.028a80.645,80.645,0,0,0,16.866-5.634,80.575,80.575,0,0,0,16.859,5.634c15.164,3.353,35.327,3.749,57.213-.028,10.555-1.821,31.692-10.78,40.22-5.3a18.78,18.78,0,0,1,8.535,14.939c.346,6.954-2.753,15.708-6.982,20.961-4.229,5.231-9.58,6.954-13.781,5.831-4.2-1.1-7.279-5.055-6.933-9.058s4.1-8.055,7.257-8.733c3.149-.7,5.676,2,6.756,1.179,1.073-.8.671-5.1-2.577-8.38-3.226-3.255-9.312-5.478-14.162-1.779-4.85,3.728-8.479,13.407-7.081,21.165a17.64,17.64,0,0,0,15.962,14.381c8.133.748,17.988-3.629,23.587-11.783a26.679,26.679,0,0,0,2.2-3.8c1.2,5.429,3.53,11.578,7.455,14.91a12.144,12.144,0,0,0,13.858,1.426c3.925-2.429,5.951-7.681,6.481-12.785.551-5.132-.4-10.159-2.4-13.287a10.225,10.225,0,0,0-7.681-4.7c-2.577-.226-4.681.551-3.826,1.7.826,1.151,4.575,2.654,6.128,5.93s.9,8.331-1.5,10.929c-2.421,2.605-6.6,2.732-9.453,1.906s-4.405-2.605-5.9-6.354c-2.88-7.081,2.125-14.24-1.052-24.7a24.006,24.006,0,0,0-13.082-15.08c.445.021.9.049,1.32.071a149.388,149.388,0,0,1,23.742,3.332,134.207,134.207,0,0,1,28.267,9.58c9.453,4.554,18.511,10.6,23.763,15.51,5.231,4.9,6.657,8.627,9.855,14.331,3.177,5.7,8.133,13.385,15.984,18.433,7.829,5.034,18.56,7.434,24.392,10.583s6.756,7.053,7.5,7.378c.727.353,1.25-2.852.8-7.349a60.326,60.326,0,0,0-4.073-15.715c-2.224-5.45-5.231-10.625-9.4-14.43a37.541,37.541,0,0,0-15.009-7.879c-5.478-1.553-11.034-2.2-12.157-.8-1.1,1.4,2.224,4.857,6.453,8.408a131.758,131.758,0,0,0,14.035,10.18c4.674,2.951,8.952,5.231,7.526,5.005-1.426-.254-8.528-3.029-15.059-7.081-6.5-4.052-12.461-9.432-17.812-14.656-2.372-2.33-4.652-4.631-7.18-7.032a29.7,29.7,0,0,0,6.4,1.123,38.15,38.15,0,0,0,21.864-5.648c6.4-4.052,10.858-10.11,14.458-16.689,3.608-6.551,6.354-13.6,6.382-15.08s-2.676,2.647-7.978,4.377c-5.281,1.751-13.188,1.1-19.238,2.323-6.078,1.228-10.286,4.356-13.837,7.858-3.579,3.53-6.481,7.455-6.749,9.333-.254,1.85,2.146,1.673,5.648,1.1a63.169,63.169,0,0,0,13.061-3.53c4.977-1.977,10.357-4.977,10.83-4.405.5.579-3.925,4.7-9.128,7.328a45.787,45.787,0,0,1-16.209,4.278c-5.055.529-9.234.452-12.411-.424-8.528-2.351-24.512-14.882-35.144-19.838a79.383,79.383,0,0,0-21.462-6.9c1.977-.7,3.953-1.4,5.9-2.1,21.815-7.757,41.8-15.312,59.987-19.539a155.578,155.578,0,0,1,49.4-3.776c14.748,1.351,27.95,4.927,38.045,10.456,10.166,5.5,17.226,12.98,20.191,20.386,2.965,7.377,1.765,14.713-1.341,18.814s-8.189,4.977-12.143,4.229a11.842,11.842,0,0,1-8.048-5.86,12.132,12.132,0,0,1-1.271-8.451c.565-2.979,2.047-6.057.212-5.8-1.836.226-6.919,3.8-9.954,8.281a16.068,16.068,0,0,0-1.977,14.9,20.227,20.227,0,0,0,13.837,11.783c7.13,1.906,16.591.925,22.8-2.6,6.283-3.53,9.39-9.63,10.59-16.463a34.315,34.315,0,0,0-3.459-22.535c-4.165-8.154-12-16.936-21.462-22.865-9.531-5.928-20.756-9.029-31.557-10.656a157.318,157.318,0,0,0-29.122-1.451c-7.759.325-12.814,1.126-12.757.126.049-1.026,5.146-3.878,13.851-5.954a107.458,107.458,0,0,1,33.322-2.176c12.425,1.175,24.921,4.828,37.558,9.706,12.566,4.878,25.2,10.956,33.393,17.335,8.119,6.377,11.649,13.056,12.072,18.689s-2.33,10.279-5.577,11.952a7.42,7.42,0,0,1-8.966-2.026c-1.906-2.4-2.118-5.9-3.318-6.029s-3.53,3.127-3.318,7.858c.141,4.7,2.753,10.879,7.413,14.007a16.17,16.17,0,0,0,16.026.65c4.659-2.549,7.2-7.752,8.189-12.877a31.406,31.406,0,0,0-.635-14.19c-1.13-4-2.894-7.025-1.906-7.349.918-.3,4.659,2.047,7.907,5.627,3.177,3.579,5.86,8.352,10.025,15.885,4.236,7.5,9.884,17.734,17.367,24.236a36.182,36.182,0,0,0,25.062,8.909,33.37,33.37,0,0,0,20.262-7.928c2.753-2.9,8.754-10.5,8.9-13.392,0-2.407-8.472,6.862-15.108,7.413-6.424.7-15.6-1.25-23.3-4.377a58.008,58.008,0,0,1-19.2-12.708c-5.365-5.281-9.954-11.557-8.966-13.463.918-1.9,7.342.529,15.6,2.076,8.331,1.553,18.5,2.2,26.9-.374a31.97,31.97,0,0,0,18.708-14.8,25.233,25.233,0,0,0,2.4-11.373c-.423-10.389-8.542-19.751-16.52-24.5-5.86-3.377-10.872-4.353-15.743-4a19.3,19.3,0,0,0-11.649,4.728,35.826,35.826,0,0,0-7.2,9.306c-1.694,3.077-2.612,5.678-1.836,5.778.706.1,3.247-2.3,6.283-4.7,3.036-2.426,6.636-4.853,11.3-5.253a18.819,18.819,0,0,1,14.684,5.6c4.165,4.328,6.778,11.332,6,17.16-.706,5.831-4.8,10.5-11.578,13.081-6.707,2.577-16.167,3.057-26.827.974-10.59-2.047-22.309-6.679-33.958-12.805-5.577-2.952-11.225-6.279-16.943-9.681a37.445,37.445,0,0,0,10.731.276c6.848-.976,13.414-4.8,16.379-11.082a21.419,21.419,0,0,0,1.059-15.16,29.584,29.584,0,0,1,1.624-2.876c1.624-2.652,3.106-3.877,5.718-4.3,2.683-.45,6.424-.126,8.472,1.9a6.845,6.845,0,0,1,.635,8.08c-1.624,2.326-5.154,3.2-6,4s.988,1.476,3.389,1.45a10.237,10.237,0,0,0,7.272-3.027,13.866,13.866,0,0,0,3.036-9.58c-.141-3.777-1.553-7.7-5.012-9.706-3.318-2-8.684-2.027-12.637.275-3.742,2.226-6.283,6.6-7.766,10.506a17.087,17.087,0,0,0-1.694-2.9c-4.518-6.254-13.131-9.981-20.544-9.881s-13.7,4.028-15.461,9.632.847,12.883,5.013,15.885c4.165,2.976,9.813,1.676,12.919-.551,3.177-2.2,3.812-5.328,2.895-5.978s-3.389,1.175-6.142.5c-2.824-.676-5.93-3.829-6-6.78s2.965-5.677,6.848-6.253c3.883-.6,8.613.95,12.143,5,3.389,4.077,5.648,10.656,4.871,15.734s-4.589,8.656-8.754,10.457c-4.095,1.8-8.542,1.85-13.767,1.125-8.26-1.151-10.66-3.677-17.791-7.6-22.45-12.332-41.017-18.512-59.161-19.537-17.628-1-34.939,2.851-55.1,10.606-10.456,4.028-19.88,8.581-29.863,13.134-2.33,1.075-4.709,2.15-7.081,3.226a19.185,19.185,0,0,1-.529-2.376c-.445-3.277-.021-7.405,1.158-12.357,1.151-4.953,3.022-10.732,6.276-15.534,3.276-4.828,7.956-8.681,8.451-8.131.53.551-3.149,5.5-5.747,10.182A64.539,64.539,0,0,0,629.818,38.6c-1,3.377-1.5,5.729.4,5.729,1.878-.025,6.156-2.427,10.082-5.529,3.953-3.077,7.554-6.854,9.559-12.708,1.977-5.853,2.351-13.757,4.751-18.81,2.4-5.028,6.827-7.18,5.351-7.355a2.39,2.39,0,0,0-.339-.006c-2.026.087-8.9,1.852-15.447,4.408-6.954,2.752-13.526,6.4-18.384,12.232a38.171,38.171,0,0,0-8.352,20.988,30.231,30.231,0,0,0,3.953,17.036c.247.425.522.8.77,1.15-6.926,3.1-14.183,6.279-22.083,9.656a398.988,398.988,0,0,1-39.951,15.032c-8.556,2.626-17.537,4.907-26.241,6.728,6.827-3.226,14.833-7.526,20.615-13.781C562.3,64.919,566.054,52.936,561.9,42c-4.158-10.906-16.188-20.787-30.421-22.963-14.233-2.2-30.668,3.278-40.474,11.908C481.2,39.6,478,51.411,482.9,60.091S500.835,74.347,510.3,73.1c9.425-1.221,15.306-9.254,16.661-15.483,1.32-6.229-1.878-10.681-3.953-10.406s-3.008,5.3-7.632,7.73c-4.653,2.426-12.983,2.275-16.859-1.176-3.9-3.428-3.353-10.157,1.073-15.31s12.785-8.756,22.718-7.93c9.954.8,21.532,6.03,27.088,12.934,5.556,6.929,5.1,15.559,1.927,22.413-3.177,6.882-9.058,12.029-16.838,16.533-4.779,2.753-13.131,7.18-18.532,7.928A164.1,164.1,0,0,1,481,91.834a97.121,97.121,0,0,1-22.62-4.144,73.624,73.624,0,0,0,8.253-5.888c4.222-3.5,14.035-14.871,11.472-13.138L475.992,70.1c-1.553,1.1-3.826,2.824-6.629,4.7a112.2,112.2,0,0,1-18.306,10.173A112,112,0,0,1,432.743,74.8c-2.8-1.878-5.076-3.6-6.622-4.7L424,68.665c-2.563-1.734,7.243,9.636,11.472,13.138a73.511,73.511,0,0,0,8.246,5.888,97.059,97.059,0,0,1-22.613,4.144,164.07,164.07,0,0,1-34.946-1.5c-5.408-.748-13.76-5.175-18.539-7.928-7.78-4.5-13.654-9.651-16.831-16.533-3.177-6.854-3.629-15.484,1.92-22.413,5.556-6.9,17.141-12.133,27.1-12.934,9.926-.826,18.285,2.777,22.711,7.93s4.977,11.882,1.08,15.31c-3.883,3.452-12.206,3.6-16.866,1.176-4.624-2.426-5.549-7.455-7.625-7.73s-5.281,4.177-3.953,10.406c1.348,6.229,7.229,14.262,16.661,15.483,9.453,1.25,22.485-4.326,27.392-13.006s1.7-20.488-8.1-29.143c-9.806-8.63-26.241-14.109-40.481-11.908C356.391,21.217,344.362,31.1,340.21,42c-4.151,10.932-.4,22.915,7.406,31.369,5.775,6.255,13.781,10.554,20.608,13.781-8.7-1.821-17.685-4.1-26.241-6.728a398.172,398.172,0,0,1-39.944-15.032c-7.907-3.377-15.157-6.554-22.09-9.656.254-.351.522-.725.777-1.15a30.289,30.289,0,0,0,3.954-17.036,38.181,38.181,0,0,0-8.359-20.988c-4.85-5.829-11.43-9.48-18.384-12.232C251.391,1.776,244.522.011,242.489-.076Z" transform="translate(0.009 0.079)" fill="#c40001" fill-rule="evenodd"/>
</svg>
